ffmpeg started on 2026-04-01 at 11:23:33
Report written to "D:\Convert\FFMetrics\reports\psnr_report-6.txt"
Log level: 32
Command line:
ffmpeg -hide_banner -nostdin -r 24000/1001 -i "F:\\Convert\\files\\[DC] Make Heroine ga Oosugiru - 07_Telegram_HEVC(268).mkv" -r 24000/1001 -i "F:\\Convert\\files\\[DC] Make Heroine ga Oosugiru - 07_Telegram.mp4" -lavfi "[0:v]settb=AVTB,setpts=PTS-STARTPTS,format=pix_fmts=yuv420p10le,fps=24000/1001,scale=1920:1080:flags=lanczos:param0=3:out_range=limited:out_color_matrix=bt709:out_chroma_loc=left,setsar=1/1,setdar=(1920/1080)*(1/1),colorspace=format=yuv420p10:range=tv:primaries=bt709:trc=bt709:space=bt709:fast=0[main];[1:v]settb=AVTB,setpts=PTS-STARTPTS,format=pix_fmts=yuv420p,fps=24000/1001,scale=1920:1080:flags=lanczos:param0=3:out_range=limited:out_color_matrix=bt709:out_chroma_loc=left,setsar=1/1,setdar=(1920/1080)*(1/1),colorspace=format=yuv420p:range=tv:primaries=bt709:trc=bt709:space=bt709:fast=0[ref];[main][ref]psnr=eof_action=endall:stats_file='D\\:/Convert/FFMetrics/logs/psnr_logfile-6.txt'" -f null -
Input #0, matroska,webm, from 'F:\Convert\files\[DC] Make Heroine ga Oosugiru - 07_Telegram_HEVC(268).mkv':
  Metadata:
    COMPATIBLE_BRANDS: isomiso2avc1mp41
    MAJOR_BRAND     : isom
    MINOR_VERSION   : 512
    ENCODER         : Lavf61.7.100
  Duration: 00:24:06.79, start: -0.021000, bitrate: 936 kb/s
  Stream #0:0: Video: hevc (Main 10), yuv420p10le(tv, bt709, progressive), 1920x1080 [SAR 1:1 DAR 16:9], 23.98 fps, 23.98 tbr, 1k tbn (default)
      Metadata:
        HANDLER_NAME    : VideoHandler
        VENDOR_ID       : [0][0][0][0]
        ENCODER         : Lavc61.19.100 libx265
        BPS             : 739757
        DURATION        : 00:24:06.569708333
        NUMBER_OF_FRAMES: 34683
        NUMBER_OF_BYTES : 133763726
        _STATISTICS_WRITING_APP: mkvpropedit v94.0 ('Initiate') 64-bit
        _STATISTICS_WRITING_DATE_UTC: 2026-03-30 11:43:42
        _STATISTICS_TAGS: BPS DURATION NUMBER_OF_FRAMES NUMBER_OF_BYTES
  Stream #0:1: Audio: aac (LC), 48000 Hz, stereo, fltp (default)
      Metadata:
        HANDLER_NAME    : SoundHandler
        VENDOR_ID       : [0][0][0][0]
        ENCODER         : Lavc61.19.100 aac
        BPS             : 193194
        DURATION        : 00:24:06.784000000
        NUMBER_OF_FRAMES: 67819
        NUMBER_OF_BYTES : 34938755
        _STATISTICS_WRITING_APP: mkvpropedit v94.0 ('Initiate') 64-bit
        _STATISTICS_WRITING_DATE_UTC: 2026-03-30 11:43:42
        _STATISTICS_TAGS: BPS DURATION NUMBER_OF_FRAMES NUMBER_OF_BYTES
Input #1, mov,mp4,m4a,3gp,3g2,mj2, from 'F:\Convert\files\[DC] Make Heroine ga Oosugiru - 07_Telegram.mp4':
  Metadata:
    major_brand     : isom
    minor_version   : 512
    compatible_brands: isomiso2avc1mp41
    encoder         : Lavf60.16.100
  Duration: 00:24:06.74, start: 0.000000, bitrate: 3764 kb/s
  Stream #1:0[0x1](und): Video: h264 (High) (avc1 / 0x31637661), yuv420p(tv, bt709, progressive), 1920x1080 [SAR 1:1 DAR 16:9], 3616 kb/s, 23.98 fps, 23.98 tbr, 24k tbn (default)
      Metadata:
        handler_name    : VideoHandler
        vendor_id       : [0][0][0][0]
        encoder         : Lavc60.31.102 h264_qsv
  Stream #1:1[0x2](und): Audio: aac (HE-AACv2) (mp4a / 0x6134706D), 48000 Hz, stereo, fltp, 144 kb/s (default)
      Metadata:
        handler_name    : SoundHandler
        vendor_id       : [0][0][0][0]
Stream mapping:
  Stream #0:0 (hevc) -> settb:default
  Stream #1:0 (h264) -> settb:default
  psnr:default -> Stream #0:0 (wrapped_avframe)
  Stream #0:1 -> #0:1 (aac (native) -> pcm_s16le (native))
Output #0, null, to 'pipe:':
  Metadata:
    COMPATIBLE_BRANDS: isomiso2avc1mp41
    MAJOR_BRAND     : isom
    MINOR_VERSION   : 512
    encoder         : Lavf61.7.100
  Stream #0:0: Video: wrapped_avframe, yuv420p10le(tv, bt709, progressive), 1920x1080 [SAR 1:1 DAR 16:9], q=2-31, 200 kb/s, 23.98 fps, 23.98 tbn
      Metadata:
        encoder         : Lavc61.19.100 wrapped_avframe
  Stream #0:1: Audio: pcm_s16le, 48000 Hz, stereo, s16, 1536 kb/s (default)
      Metadata:
        HANDLER_NAME    : SoundHandler
        VENDOR_ID       : [0][0][0][0]
        _STATISTICS_TAGS: BPS DURATION NUMBER_OF_FRAMES NUMBER_OF_BYTES
        BPS             : 193194
        DURATION        : 00:24:06.784000000
        NUMBER_OF_FRAMES: 67819
        NUMBER_OF_BYTES : 34938755
        _STATISTICS_WRITING_APP: mkvpropedit v94.0 ('Initiate') 64-bit
        _STATISTICS_WRITING_DATE_UTC: 2026-03-30 11:43:42
        encoder         : Lavc61.19.100 pcm_s16le
frame=  128 fps=0.0 q=-0.0 size=N/A time=00:00:05.33 bitrate=N/A speed=10.3x    frame=  317 fps=304 q=-0.0 size=N/A time=00:00:13.22 bitrate=N/A speed=12.7x    frame=  505 fps=325 q=-0.0 size=N/A time=00:00:21.06 bitrate=N/A speed=13.6x    frame=  693 fps=336 q=-0.0 size=N/A time=00:00:28.90 bitrate=N/A speed=  14x    frame=  880 fps=340 q=-0.0 size=N/A time=00:00:36.70 bitrate=N/A speed=14.2x    frame= 1018 fps=328 q=-0.0 size=N/A time=00:00:42.45 bitrate=N/A speed=13.7x    frame= 1174 fps=325 q=-0.0 size=N/A time=00:00:48.96 bitrate=N/A speed=13.6x    frame= 1330 fps=322 q=-0.0 size=N/A time=00:00:55.47 bitrate=N/A speed=13.4x    frame= 1496 fps=322 q=-0.0 size=N/A time=00:01:02.39 bitrate=N/A speed=13.4x    frame= 1632 fps=316 q=-0.0 size=N/A time=00:01:08.06 bitrate=N/A speed=13.2x    frame= 1784 fps=314 q=-0.0 size=N/A time=00:01:14.40 bitrate=N/A speed=13.1x    frame= 1940 fps=314 q=-0.0 size=N/A time=00:01:20.91 bitrate=N/A speed=13.1x    frame= 2080 fps=310 q=-0.0 size=N/A time=00:01:26.75 bitrate=N/A speed=12.9x    frame= 2218 fps=307 q=-0.0 size=N/A time=00:01:32.50 bitrate=N/A speed=12.8x    frame= 2365 fps=306 q=-0.0 size=N/A time=00:01:38.64 bitrate=N/A speed=12.7x    frame= 2495 fps=302 q=-0.0 size=N/A time=00:01:44.06 bitrate=N/A speed=12.6x    frame= 2653 fps=302 q=-0.0 size=N/A time=00:01:50.65 bitrate=N/A speed=12.6x    frame= 2823 fps=304 q=-0.0 size=N/A time=00:01:57.74 bitrate=N/A speed=12.7x    frame= 2999 fps=306 q=-0.0 size=N/A time=00:02:05.08 bitrate=N/A speed=12.8x    frame= 3188 fps=309 q=-0.0 size=N/A time=00:02:12.96 bitrate=N/A speed=12.9x    frame= 3386 fps=312 q=-0.0 size=N/A time=00:02:21.22 bitrate=N/A speed=  13x    frame= 3573 fps=315 q=-0.0 size=N/A time=00:02:29.02 bitrate=N/A speed=13.1x    frame= 3769 fps=318 q=-0.0 size=N/A time=00:02:37.19 bitrate=N/A speed=13.3x    frame= 3961 fps=320 q=-0.0 size=N/A time=00:02:45.20 bitrate=N/A speed=13.4x    frame= 4160 fps=322 q=-0.0 size=N/A time=00:02:53.50 bitrate=N/A speed=13.4x    frame= 4349 fps=324 q=-0.0 size=N/A time=00:03:01.38 bitrate=N/A speed=13.5x    frame= 4541 fps=326 q=-0.0 size=N/A time=00:03:09.39 bitrate=N/A speed=13.6x    frame= 4735 fps=328 q=-0.0 size=N/A time=00:03:17.48 bitrate=N/A speed=13.7x    frame= 4930 fps=330 q=-0.0 size=N/A time=00:03:25.62 bitrate=N/A speed=13.7x    frame= 5125 fps=331 q=-0.0 size=N/A time=00:03:33.75 bitrate=N/A speed=13.8x    frame= 5310 fps=332 q=-0.0 size=N/A time=00:03:41.47 bitrate=N/A speed=13.9x    frame= 5502 fps=333 q=-0.0 size=N/A time=00:03:49.47 bitrate=N/A speed=13.9x    frame= 5702 fps=335 q=-0.0 size=N/A time=00:03:57.82 bitrate=N/A speed=  14x    frame= 5891 fps=336 q=-0.0 size=N/A time=00:04:05.70 bitrate=N/A speed=  14x    frame= 6085 fps=337 q=-0.0 size=N/A time=00:04:13.79 bitrate=N/A speed=  14x    frame= 6273 fps=338 q=-0.0 size=N/A time=00:04:21.63 bitrate=N/A speed=14.1x    frame= 6469 fps=339 q=-0.0 size=N/A time=00:04:29.81 bitrate=N/A speed=14.1x    frame= 6659 fps=339 q=-0.0 size=N/A time=00:04:37.73 bitrate=N/A speed=14.2x    frame= 6856 fps=341 q=-0.0 size=N/A time=00:04:45.95 bitrate=N/A speed=14.2x    frame= 7040 fps=341 q=-0.0 size=N/A time=00:04:53.62 bitrate=N/A speed=14.2x    frame= 7210 fps=341 q=-0.0 size=N/A time=00:05:00.71 bitrate=N/A speed=14.2x    frame= 7392 fps=341 q=-0.0 size=N/A time=00:05:08.30 bitrate=N/A speed=14.2x    frame= 7579 fps=342 q=-0.0 size=N/A time=00:05:16.10 bitrate=N/A speed=14.2x    frame= 7759 fps=342 q=-0.0 size=N/A time=00:05:23.61 bitrate=N/A speed=14.2x    frame= 7938 fps=342 q=-0.0 size=N/A time=00:05:31.08 bitrate=N/A speed=14.3x    frame= 8127 fps=342 q=-0.0 size=N/A time=00:05:38.96 bitrate=N/A speed=14.3x    frame= 8319 fps=343 q=-0.0 size=N/A time=00:05:46.97 bitrate=N/A speed=14.3x    frame= 8512 fps=344 q=-0.0 size=N/A time=00:05:55.02 bitrate=N/A speed=14.3x    frame= 8700 fps=344 q=-0.0 size=N/A time=00:06:02.86 bitrate=N/A speed=14.3x    frame= 8890 fps=345 q=-0.0 size=N/A time=00:06:10.78 bitrate=N/A speed=14.4x    frame= 9074 fps=345 q=-0.0 size=N/A time=00:06:18.46 bitrate=N/A speed=14.4x    frame= 9249 fps=345 q=-0.0 size=N/A time=00:06:25.76 bitrate=N/A speed=14.4x    frame= 9432 fps=345 q=-0.0 size=N/A time=00:06:33.39 bitrate=N/A speed=14.4x    frame= 9619 fps=345 q=-0.0 size=N/A time=00:06:41.19 bitrate=N/A speed=14.4x    frame= 9785 fps=345 q=-0.0 size=N/A time=00:06:48.11 bitrate=N/A speed=14.4x    frame= 9976 fps=345 q=-0.0 size=N/A time=00:06:56.08 bitrate=N/A speed=14.4x    frame=10155 fps=345 q=-0.0 size=N/A time=00:07:03.54 bitrate=N/A speed=14.4x    frame=10326 fps=345 q=-0.0 size=N/A time=00:07:10.68 bitrate=N/A speed=14.4x    frame=10506 fps=345 q=-0.0 size=N/A time=00:07:18.18 bitrate=N/A speed=14.4x    frame=10686 fps=345 q=-0.0 size=N/A time=00:07:25.69 bitrate=N/A speed=14.4x    frame=10849 fps=345 q=-0.0 size=N/A time=00:07:32.49 bitrate=N/A speed=14.4x    frame=11032 fps=345 q=-0.0 size=N/A time=00:07:40.12 bitrate=N/A speed=14.4x    frame=11200 fps=345 q=-0.0 size=N/A time=00:07:47.13 bitrate=N/A speed=14.4x    frame=11386 fps=345 q=-0.0 size=N/A time=00:07:54.89 bitrate=N/A speed=14.4x    frame=11570 fps=345 q=-0.0 size=N/A time=00:08:02.56 bitrate=N/A speed=14.4x    frame=11754 fps=345 q=-0.0 size=N/A time=00:08:10.23 bitrate=N/A speed=14.4x    frame=11939 fps=345 q=-0.0 size=N/A time=00:08:17.95 bitrate=N/A speed=14.4x    frame=12139 fps=346 q=-0.0 size=N/A time=00:08:26.29 bitrate=N/A speed=14.4x    frame=12320 fps=346 q=-0.0 size=N/A time=00:08:33.84 bitrate=N/A speed=14.4x    frame=12505 fps=346 q=-0.0 size=N/A time=00:08:41.56 bitrate=N/A speed=14.4x    frame=12682 fps=346 q=-0.0 size=N/A time=00:08:48.94 bitrate=N/A speed=14.4x    frame=12865 fps=346 q=-0.0 size=N/A time=00:08:56.57 bitrate=N/A speed=14.4x    frame=13049 fps=347 q=-0.0 size=N/A time=00:09:04.25 bitrate=N/A speed=14.5x    frame=13235 fps=347 q=-0.0 size=N/A time=00:09:12.00 bitrate=N/A speed=14.5x    frame=13410 fps=347 q=-0.0 size=N/A time=00:09:19.30 bitrate=N/A speed=14.5x    frame=13592 fps=347 q=-0.0 size=N/A time=00:09:26.89 bitrate=N/A speed=14.5x    frame=13784 fps=347 q=-0.0 size=N/A time=00:09:34.90 bitrate=N/A speed=14.5x    frame=13963 fps=347 q=-0.0 size=N/A time=00:09:42.37 bitrate=N/A speed=14.5x    frame=14126 fps=347 q=-0.0 size=N/A time=00:09:49.17 bitrate=N/A speed=14.5x    frame=14306 fps=347 q=-0.0 size=N/A time=00:09:56.67 bitrate=N/A speed=14.5x    frame=14490 fps=347 q=-0.0 size=N/A time=00:10:04.35 bitrate=N/A speed=14.5x    frame=14668 fps=347 q=-0.0 size=N/A time=00:10:11.77 bitrate=N/A speed=14.5x    frame=14851 fps=347 q=-0.0 size=N/A time=00:10:19.41 bitrate=N/A speed=14.5x    frame=15033 fps=347 q=-0.0 size=N/A time=00:10:27.00 bitrate=N/A speed=14.5x    frame=15186 fps=346 q=-0.0 size=N/A time=00:10:33.38 bitrate=N/A speed=14.4x    frame=15363 fps=346 q=-0.0 size=N/A time=00:10:40.76 bitrate=N/A speed=14.4x    frame=15553 fps=347 q=-0.0 size=N/A time=00:10:48.68 bitrate=N/A speed=14.5x    frame=15734 fps=347 q=-0.0 size=N/A time=00:10:56.23 bitrate=N/A speed=14.5x    frame=15916 fps=347 q=-0.0 size=N/A time=00:11:03.82 bitrate=N/A speed=14.5x    frame=16102 fps=347 q=-0.0 size=N/A time=00:11:11.58 bitrate=N/A speed=14.5x    frame=16290 fps=347 q=-0.0 size=N/A time=00:11:19.42 bitrate=N/A speed=14.5x    frame=16471 fps=347 q=-0.0 size=N/A time=00:11:26.97 bitrate=N/A speed=14.5x    frame=16648 fps=347 q=-0.0 size=N/A time=00:11:34.36 bitrate=N/A speed=14.5x    frame=16840 fps=347 q=-0.0 size=N/A time=00:11:42.36 bitrate=N/A speed=14.5x    frame=17018 fps=347 q=-0.0 size=N/A time=00:11:49.79 bitrate=N/A speed=14.5x    frame=17202 fps=347 q=-0.0 size=N/A time=00:11:57.46 bitrate=N/A speed=14.5x    frame=17390 fps=347 q=-0.0 size=N/A time=00:12:05.30 bitrate=N/A speed=14.5x    frame=17566 fps=347 q=-0.0 size=N/A time=00:12:12.64 bitrate=N/A speed=14.5x    frame=17749 fps=347 q=-0.0 size=N/A time=00:12:20.28 bitrate=N/A speed=14.5x    frame=17942 fps=348 q=-0.0 size=N/A time=00:12:28.33 bitrate=N/A speed=14.5x    frame=18119 fps=348 q=-0.0 size=N/A time=00:12:35.71 bitrate=N/A speed=14.5x    frame=18295 fps=348 q=-0.0 size=N/A time=00:12:43.05 bitrate=N/A speed=14.5x    frame=18479 fps=348 q=-0.0 size=N/A time=00:12:50.72 bitrate=N/A speed=14.5x    frame=18659 fps=348 q=-0.0 size=N/A time=00:12:58.23 bitrate=N/A speed=14.5x    frame=18844 fps=348 q=-0.0 size=N/A time=00:13:05.95 bitrate=N/A speed=14.5x    frame=19023 fps=348 q=-0.0 size=N/A time=00:13:13.41 bitrate=N/A speed=14.5x    frame=19206 fps=348 q=-0.0 size=N/A time=00:13:21.05 bitrate=N/A speed=14.5x    frame=19389 fps=348 q=-0.0 size=N/A time=00:13:28.68 bitrate=N/A speed=14.5x    frame=19568 fps=348 q=-0.0 size=N/A time=00:13:36.14 bitrate=N/A speed=14.5x    frame=19749 fps=348 q=-0.0 size=N/A time=00:13:43.69 bitrate=N/A speed=14.5x    frame=19937 fps=348 q=-0.0 size=N/A time=00:13:51.53 bitrate=N/A speed=14.5x    frame=20116 fps=348 q=-0.0 size=N/A time=00:13:59.00 bitrate=N/A speed=14.5x    frame=20303 fps=348 q=-0.0 size=N/A time=00:14:06.80 bitrate=N/A speed=14.5x    frame=20484 fps=348 q=-0.0 size=N/A time=00:14:14.35 bitrate=N/A speed=14.5x    frame=20647 fps=348 q=-0.0 size=N/A time=00:14:21.15 bitrate=N/A speed=14.5x    frame=20828 fps=348 q=-0.0 size=N/A time=00:14:28.70 bitrate=N/A speed=14.5x    frame=21007 fps=348 q=-0.0 size=N/A time=00:14:36.16 bitrate=N/A speed=14.5x    frame=21195 fps=348 q=-0.0 size=N/A time=00:14:44.00 bitrate=N/A speed=14.5x    frame=21378 fps=348 q=-0.0 size=N/A time=00:14:51.64 bitrate=N/A speed=14.5x    frame=21562 fps=348 q=-0.0 size=N/A time=00:14:59.31 bitrate=N/A speed=14.5x    frame=21748 fps=348 q=-0.0 size=N/A time=00:15:07.07 bitrate=N/A speed=14.5x    frame=21934 fps=348 q=-0.0 size=N/A time=00:15:14.83 bitrate=N/A speed=14.5x    frame=22114 fps=348 q=-0.0 size=N/A time=00:15:22.33 bitrate=N/A speed=14.5x    frame=22295 fps=349 q=-0.0 size=N/A time=00:15:29.88 bitrate=N/A speed=14.5x    frame=22487 fps=349 q=-0.0 size=N/A time=00:15:37.89 bitrate=N/A speed=14.5x    frame=22666 fps=349 q=-0.0 size=N/A time=00:15:45.36 bitrate=N/A speed=14.5x    frame=22841 fps=349 q=-0.0 size=N/A time=00:15:52.66 bitrate=N/A speed=14.5x    frame=23016 fps=349 q=-0.0 size=N/A time=00:15:59.95 bitrate=N/A speed=14.5x    frame=23204 fps=349 q=-0.0 size=N/A time=00:16:07.80 bitrate=N/A speed=14.5x    frame=23389 fps=349 q=-0.0 size=N/A time=00:16:15.51 bitrate=N/A speed=14.5x    frame=23571 fps=349 q=-0.0 size=N/A time=00:16:23.10 bitrate=N/A speed=14.5x    frame=23758 fps=349 q=-0.0 size=N/A time=00:16:30.90 bitrate=N/A speed=14.6x    frame=23948 fps=349 q=-0.0 size=N/A time=00:16:38.83 bitrate=N/A speed=14.6x    frame=24128 fps=349 q=-0.0 size=N/A time=00:16:46.33 bitrate=N/A speed=14.6x    frame=24314 fps=349 q=-0.0 size=N/A time=00:16:54.09 bitrate=N/A speed=14.6x    frame=24496 fps=349 q=-0.0 size=N/A time=00:17:01.68 bitrate=N/A speed=14.6x    frame=24682 fps=349 q=-0.0 size=N/A time=00:17:09.44 bitrate=N/A speed=14.6x    frame=24869 fps=349 q=-0.0 size=N/A time=00:17:17.24 bitrate=N/A speed=14.6x    frame=25052 fps=349 q=-0.0 size=N/A time=00:17:24.87 bitrate=N/A speed=14.6x    frame=25244 fps=350 q=-0.0 size=N/A time=00:17:32.88 bitrate=N/A speed=14.6x    frame=25426 fps=350 q=-0.0 size=N/A time=00:17:40.47 bitrate=N/A speed=14.6x    frame=25603 fps=350 q=-0.0 size=N/A time=00:17:47.85 bitrate=N/A speed=14.6x    frame=25795 fps=350 q=-0.0 size=N/A time=00:17:55.86 bitrate=N/A speed=14.6x    frame=25975 fps=350 q=-0.0 size=N/A time=00:18:03.37 bitrate=N/A speed=14.6x    frame=26160 fps=350 q=-0.0 size=N/A time=00:18:11.09 bitrate=N/A speed=14.6x    frame=26344 fps=350 q=-0.0 size=N/A time=00:18:18.76 bitrate=N/A speed=14.6x    frame=26530 fps=350 q=-0.0 size=N/A time=00:18:26.52 bitrate=N/A speed=14.6x    frame=26718 fps=350 q=-0.0 size=N/A time=00:18:34.36 bitrate=N/A speed=14.6x    frame=26899 fps=350 q=-0.0 size=N/A time=00:18:41.91 bitrate=N/A speed=14.6x    frame=27067 fps=350 q=-0.0 size=N/A time=00:18:48.91 bitrate=N/A speed=14.6x    frame=27245 fps=350 q=-0.0 size=N/A time=00:18:56.34 bitrate=N/A speed=14.6x    frame=27421 fps=350 q=-0.0 size=N/A time=00:19:03.68 bitrate=N/A speed=14.6x    frame=27604 fps=350 q=-0.0 size=N/A time=00:19:11.31 bitrate=N/A speed=14.6x    frame=27785 fps=350 q=-0.0 size=N/A time=00:19:18.86 bitrate=N/A speed=14.6x    frame=27969 fps=350 q=-0.0 size=N/A time=00:19:26.54 bitrate=N/A speed=14.6x    frame=28146 fps=350 q=-0.0 size=N/A time=00:19:33.92 bitrate=N/A speed=14.6x    frame=28330 fps=350 q=-0.0 size=N/A time=00:19:41.59 bitrate=N/A speed=14.6x    frame=28512 fps=350 q=-0.0 size=N/A time=00:19:49.18 bitrate=N/A speed=14.6x    frame=28699 fps=350 q=-0.0 size=N/A time=00:19:56.98 bitrate=N/A speed=14.6x    frame=28857 fps=350 q=-0.0 size=N/A time=00:20:03.57 bitrate=N/A speed=14.6x    frame=29020 fps=349 q=-0.0 size=N/A time=00:20:10.37 bitrate=N/A speed=14.6x    frame=29189 fps=349 q=-0.0 size=N/A time=00:20:17.42 bitrate=N/A speed=14.6x    frame=29366 fps=349 q=-0.0 size=N/A time=00:20:24.80 bitrate=N/A speed=14.6x    frame=29529 fps=349 q=-0.0 size=N/A time=00:20:31.60 bitrate=N/A speed=14.6x    frame=29697 fps=349 q=-0.0 size=N/A time=00:20:38.61 bitrate=N/A speed=14.6x    frame=29862 fps=349 q=-0.0 size=N/A time=00:20:45.49 bitrate=N/A speed=14.5x    frame=30023 fps=348 q=-0.0 size=N/A time=00:20:52.20 bitrate=N/A speed=14.5x    frame=30198 fps=348 q=-0.0 size=N/A time=00:20:59.50 bitrate=N/A speed=14.5x    frame=30368 fps=348 q=-0.0 size=N/A time=00:21:06.59 bitrate=N/A speed=14.5x    frame=30560 fps=348 q=-0.0 size=N/A time=00:21:14.60 bitrate=N/A speed=14.5x    frame=30738 fps=348 q=-0.0 size=N/A time=00:21:22.03 bitrate=N/A speed=14.5x    frame=30917 fps=348 q=-0.0 size=N/A time=00:21:29.49 bitrate=N/A speed=14.5x    frame=31094 fps=348 q=-0.0 size=N/A time=00:21:36.87 bitrate=N/A speed=14.5x    frame=31283 fps=349 q=-0.0 size=N/A time=00:21:44.76 bitrate=N/A speed=14.5x    frame=31459 fps=348 q=-0.0 size=N/A time=00:21:52.10 bitrate=N/A speed=14.5x    frame=31636 fps=348 q=-0.0 size=N/A time=00:21:59.48 bitrate=N/A speed=14.5x    frame=31819 fps=348 q=-0.0 size=N/A time=00:22:07.11 bitrate=N/A speed=14.5x    frame=31993 fps=348 q=-0.0 size=N/A time=00:22:14.37 bitrate=N/A speed=14.5x    frame=32176 fps=348 q=-0.0 size=N/A time=00:22:22.00 bitrate=N/A speed=14.5x    frame=32358 fps=348 q=-0.0 size=N/A time=00:22:29.59 bitrate=N/A speed=14.5x    frame=32542 fps=348 q=-0.0 size=N/A time=00:22:37.27 bitrate=N/A speed=14.5x    frame=32695 fps=348 q=-0.0 size=N/A time=00:22:43.65 bitrate=N/A speed=14.5x    frame=32845 fps=348 q=-0.0 size=N/A time=00:22:49.91 bitrate=N/A speed=14.5x    frame=33012 fps=348 q=-0.0 size=N/A time=00:22:56.87 bitrate=N/A speed=14.5x    frame=33188 fps=348 q=-0.0 size=N/A time=00:23:04.21 bitrate=N/A speed=14.5x    frame=33352 fps=348 q=-0.0 size=N/A time=00:23:11.05 bitrate=N/A speed=14.5x    frame=33508 fps=347 q=-0.0 size=N/A time=00:23:17.56 bitrate=N/A speed=14.5x    frame=33655 fps=347 q=-0.0 size=N/A time=00:23:23.69 bitrate=N/A speed=14.5x    frame=33794 fps=346 q=-0.0 size=N/A time=00:23:29.49 bitrate=N/A speed=14.5x    frame=33914 fps=346 q=-0.0 size=N/A time=00:23:34.49 bitrate=N/A speed=14.4x    frame=34072 fps=346 q=-0.0 size=N/A time=00:23:41.08 bitrate=N/A speed=14.4x    frame=34236 fps=346 q=-0.0 size=N/A time=00:23:47.92 bitrate=N/A speed=14.4x    frame=34367 fps=345 q=-0.0 size=N/A time=00:23:53.39 bitrate=N/A speed=14.4x    frame=34498 fps=345 q=-0.0 size=N/A time=00:23:58.85 bitrate=N/A speed=14.4x    [Parsed_psnr_16 @ 000001d4f521bdc0] PSNR y:48.864464 u:50.344546 v:50.393813 average:49.310491 min:37.811430 max:inf
[out#0/null @ 000001d4ede8dec0] video:14903KiB audio:271276KiB subtitle:0KiB other streams:0KiB global headers:0KiB muxing overhead: unknown
frame=34683 fps=345 q=-0.0 Lsize=N/A time=00:24:06.57 bitrate=N/A speed=14.4x    
